<?xml version="1.0" standalone="no"?>
<!DOCTYPE svg PUBLIC "-//W3C//DTD SVG 20010904//EN"
 "http://www.w3.org/TR/2001/REC-SVG-20010904/DTD/svg10.dtd">
<svg version="1.0" xmlns="http://www.w3.org/2000/svg"
 width="512.000000pt" height="512.000000pt" viewBox="0 0 512.000000 512.000000"
 preserveAspectRatio="xMidYMid meet">

<g transform="translate(0.000000,512.000000) scale(0.100000,-0.100000)"
fill="#000000" stroke="none">
<path d="M2325 4868 c-300 -30 -626 -134 -895 -284 -206 -116 -364 -238 -537
-417 -286 -295 -477 -637 -578 -1031 -55 -216 -69 -333 -69 -576 0 -243 14
-360 69 -576 105 -410 302 -754 609 -1060 311 -309 648 -503 1060 -609 215
-55 333 -69 576 -69 242 0 357 13 574 68 1051 266 1785 1245 1743 2326 -27
675 -320 1271 -842 1708 -464 389 -1097 582 -1710 520z m436 -158 c322 -32
651 -141 918 -304 293 -178 549 -434 727 -727 236 -387 348 -873 304 -1320
-44 -438 -214 -844 -498 -1187 -524 -633 -1384 -908 -2193 -702 -685 175
-1262 705 -1494 1372 -88 252 -119 441 -119 718 0 219 13 336 59 521 110 436
360 840 695 1122 451 379 1033 563 1601 507z"/>
<path d="M2533 4509 c-7 -7 -13 -21 -13 -30 0 -9 6 -21 13 -26 16 -14 190 -23
211 -11 20 11 21 42 1 58 -22 19 -196 26 -212 9z"/>
<path d="M2853 4479 c-16 -16 -17 -45 -2 -55 21 -13 183 -44 201 -38 12 3 18
15 18 34 0 27 -5 31 -52 45 -79 23 -151 29 -165 14z"/>
<path d="M3154 4396 c-13 -35 2 -50 81 -83 86 -35 122 -38 139 -11 15 25 -13
49 -97 82 -75 29 -115 33 -123 12z"/>
<path d="M3450 4265 c-21 -25 -1 -49 81 -98 81 -47 111 -53 123 -22 10 27 -5
44 -78 90 -76 47 -106 54 -126 30z"/>
<path d="M3720 4095 c-21 -25 -2 -58 65 -112 70 -57 109 -68 120 -32 8 24 -6
42 -88 110 -62 52 -77 58 -97 34z"/>
<path d="M3952 3878 c-21 -21 -14 -36 50 -114 51 -62 66 -74 87 -72 20 2 27 9
29 30 2 20 -11 42 -58 97 -60 70 -84 83 -108 59z"/>
<path d="M1929 3737 c-54 -20 -143 -93 -245 -200 -181 -189 -298 -411 -357
-677 -31 -143 -31 -406 1 -549 65 -290 178 -497 382 -701 205 -206 436 -330
718 -387 136 -27 405 -25 541 5 183 41 338 104 482 197 77 50 112 92 129 154
36 136 -72 261 -225 261 -154 0 -349 47 -501 119 -344 164 -573 444 -671 820
-49 187 -42 448 17 640 29 93 26 155 -10 218 -51 90 -169 134 -261 100z"/>
<path d="M4152 3628 c-7 -7 -12 -20 -12 -31 0 -16 65 -135 90 -164 16 -20 48
-15 60 8 9 16 6 30 -20 77 -63 112 -90 138 -118 110z"/>
<path d="M3130 3611 c-51 -27 -66 -53 -107 -190 l-38 -124 -122 -37 c-67 -21
-133 -45 -147 -54 -57 -37 -78 -141 -40 -193 34 -46 66 -63 183 -98 63 -19
118 -38 122 -42 5 -5 24 -62 44 -128 31 -105 41 -125 75 -157 35 -34 45 -38
91 -38 59 0 102 22 128 65 10 17 33 80 51 140 17 61 35 113 39 117 3 4 60 24
126 44 66 20 132 45 146 55 37 26 63 97 54 145 -12 66 -55 97 -191 139 -65 20
-124 42 -131 48 -7 7 -28 63 -47 126 -38 127 -56 158 -107 183 -44 23 -86 23
-129 -1z"/>
<path d="M4297 3344 c-13 -14 -7 -49 22 -122 33 -85 41 -95 72 -90 35 5 34 40
-4 133 -27 68 -36 80 -57 83 -14 2 -29 0 -33 -4z"/>
<path d="M4403 3043 c-17 -6 -16 -32 3 -131 19 -93 37 -114 73 -84 21 17 22
18 6 102 -23 117 -34 133 -82 113z"/>
<path d="M4456 2727 c-25 -18 -19 -185 7 -201 34 -22 52 4 55 80 2 38 0 79 -3
91 -7 31 -37 46 -59 30z"/>
</g>
</svg>
